<?xml version="1.0" standalone="no"?>
<!DOCTYPE svg PUBLIC "-//W3C//DTD SVG 20010904//EN"
 "http://www.w3.org/TR/2001/REC-SVG-20010904/DTD/svg10.dtd">
<svg version="1.0" xmlns="http://www.w3.org/2000/svg"
 width="800.000000pt" height="510.000000pt" viewBox="0 0 800.000000 510.000000"
 preserveAspectRatio="xMidYMid meet">

<g transform="translate(0.000000,510.000000) scale(0.100000,-0.100000)"
fill="#000000" stroke="none">
<path d="M4283 4103 c9 -2 23 -2 30 0 6 3 -1 5 -18 5 -16 0 -22 -2 -12 -5z"/>
<path d="M4335 4089 c-499 -18 -935 -65 -1182 -128 -119 -31 -132 -33 -93 -16
l35 15 -45 -6 c-25 -3 -90 -27 -145 -54 -175 -86 -383 -251 -653 -516 -92 -90
-168 -164 -169 -164 -1 0 -5 20 -8 45 -12 78 -17 80 -152 77 -132 -3 -231 -22
-274 -53 -61 -43 -99 -173 -65 -224 9 -13 35 -34 57 -46 l41 -20 121 21 c134
24 236 26 497 10 85 -5 214 -10 285 -11 l130 -2 -116 -7 c-64 -4 -166 -11
-225 -15 -97 -6 -253 -27 -414 -55 -99 -17 -284 -40 -327 -40 -30 0 -46 5 -55
19 -14 19 -16 19 -66 -19 -88 -67 -122 -80 -245 -91 -61 -6 -134 -18 -162 -26
-62 -20 -159 -67 -203 -100 -39 -29 -41 -21 -5 25 15 20 21 32 15 28 -7 -4
-39 -42 -71 -84 -32 -42 -75 -93 -94 -113 -33 -35 -46 -66 -77 -189 -6 -25
-21 -74 -33 -110 l-22 -65 -5 50 -5 50 -28 -75 c-15 -41 -34 -107 -42 -146 -8
-39 -28 -100 -45 -135 -42 -91 -102 -339 -115 -484 -15 -153 31 -468 87 -604
54 -129 172 -288 272 -367 l39 -31 -62 -7 c-78 -9 -118 -23 -104 -37 12 -12
141 -26 323 -34 80 -3 1255 -42 2612 -85 2282 -74 2473 -79 2550 -65 167 29
1589 305 1627 315 59 15 64 45 17 85 l-37 31 26 93 c42 150 56 277 67 621 21
593 15 698 -48 892 -14 43 -27 94 -30 115 -11 94 -36 219 -50 247 -8 17 -12
23 -9 13 5 -20 21 -114 33 -204 8 -61 8 -61 -12 -47 -31 21 -55 17 -85 -15
l-27 -29 -22 47 c-13 29 -32 53 -49 61 -40 19 -245 24 -415 12 -79 -6 -276
-19 -438 -28 -381 -22 -399 -29 -400 -174 l-1 -65 -28 85 c-36 110 -65 166
-109 212 -42 44 -79 55 -120 34 -83 -43 -150 -178 -221 -446 -11 -41 -20 -66
-20 -55 -1 27 -117 119 -204 161 -37 18 -101 43 -142 55 -41 13 -75 28 -75 34
0 5 7 48 15 95 21 116 19 143 -7 167 -13 11 -30 23 -38 27 -8 3 -4 4 10 1 18
-3 51 13 130 64 58 38 128 80 155 94 200 99 403 116 650 54 147 -38 185 -39
588 -27 285 8 391 15 474 30 111 21 171 24 213 13 19 -5 6 -10 -55 -20 -77
-13 -121 -32 -79 -34 10 -1 33 -3 49 -4 17 -2 59 -6 94 -10 35 -3 72 -10 82
-16 11 -5 19 -6 19 -1 0 17 -146 157 -200 193 -30 20 -82 53 -115 74 -32 22
-76 54 -97 73 -21 19 -36 28 -33 20 4 -10 -3 -19 -22 -26 -37 -15 -137 -39
-193 -46 -80 -11 -670 -18 -670 -8 0 5 102 12 228 15 299 9 642 37 642 54 0
18 -83 156 -154 255 -237 330 -382 476 -566 568 -165 82 -304 85 -355 6 -37
-57 -75 -373 -78 -658 -2 -144 -5 -177 -15 -173 -8 3 -25 8 -38 11 -21 5 -24
11 -20 38 6 36 47 316 71 491 32 227 59 316 107 349 15 11 47 16 93 17 40 1
61 4 50 8 -11 4 -42 17 -70 30 -27 12 -62 25 -77 28 -16 3 -28 10 -28 16 0 6
-18 7 -48 3 -26 -3 -72 -2 -102 4 -84 15 -318 39 -493 50 -207 14 -825 19
-1102 9z m265 -361 c0 -10 -4 -18 -10 -18 -5 0 -10 11 -10 24 0 13 -3 33 -6
43 -3 10 2 7 10 -7 8 -14 15 -33 16 -42z m1766 -377 c-8 -13 4 -41 17 -41 6 0
19 -8 30 -17 19 -17 20 -17 14 0 -4 11 -3 16 4 11 33 -20 354 7 333 29 -4 4
-3 7 2 7 12 0 55 -30 72 -50 21 -25 52 -93 52 -116 0 -21 -5 -22 -132 -28 -73
-3 -200 -7 -283 -9 -130 -3 -142 -2 -90 7 66 12 78 27 40 52 -14 9 -25 22 -25
30 0 23 -21 27 -41 5 -10 -11 -19 -24 -19 -29 0 -5 -11 -7 -23 -5 l-24 5 23
68 c25 79 31 90 45 90 6 0 8 -4 5 -9z m-4370 -111 c8 -71 8 -80 -7 -80 -21 0
-31 13 -57 73 l-21 48 32 19 c18 11 35 20 38 20 3 0 10 -36 15 -80z m4288
-109 c-5 -7 -24 11 -45 42 l-21 32 34 -35 c19 -19 33 -37 32 -39z m-414 -90
c0 -6 -17 -7 -37 -4 -52 8 -54 13 -5 13 23 0 42 -4 42 -9z m120 -28 c20 -8 24
-11 10 -8 -14 2 -34 5 -46 5 -11 0 -29 7 -40 15 -18 14 -17 15 11 9 17 -4 46
-13 65 -21z m198 -30 c50 -3 92 -10 92 -14 0 -11 -5 -11 -128 5 -57 8 -106 17
-110 21 -4 4 7 5 23 1 17 -3 72 -9 123 -13z m1227 -145 l39 -33 -115 -22 c-99
-20 -166 -25 -504 -35 -289 -8 -412 -8 -475 1 -95 12 -221 49 -180 52 25 1 41
4 50 8 13 6 71 11 280 21 124 7 306 18 405 24 99 7 243 14 320 15 l140 1 40
-32z m41 -15 c-7 -7 -26 7 -26 19 0 6 6 6 15 -2 9 -7 13 -15 11 -17z m-4266
-324 c231 -11 315 -19 607 -54 67 -8 145 -12 175 -10 29 3 -10 -8 -87 -23
l-140 -28 -37 24 c-52 34 -128 40 -641 51 -445 11 -902 7 -1206 -9 -159 -9
-177 -11 -217 -35 -42 -25 -46 -25 -104 -13 -33 6 -58 13 -57 14 1 1 22 5 47
8 25 3 86 12 135 20 172 28 315 42 525 51 80 4 146 8 148 10 7 6 699 2 852 -6z
m1998 -17 c7 -5 10 -21 8 -38 -8 -54 -19 -94 -27 -100 -5 -3 -6 3 -3 13 3 10
-15 -23 -40 -73 -40 -80 -50 -93 -83 -107 -48 -19 -147 -32 -164 -21 -15 9 13
22 51 23 14 1 38 8 54 16 16 9 39 17 50 19 22 3 73 93 108 189 24 67 8 58 -24
-13 -15 -33 -33 -60 -39 -60 -7 0 -4 9 7 22 15 17 16 20 3 16 -9 -4 -20 2 -27
13 -9 14 -9 17 1 13 7 -2 22 5 33 17 l19 22 -37 -7 c-27 -5 -38 -3 -38 5 0 9
-37 10 -157 5 -87 -5 -201 -10 -253 -12 -52 -2 -189 -13 -304 -25 -206 -22
-208 -23 -170 -37 22 -9 41 -19 44 -23 3 -5 17 -12 30 -18 l25 -10 -27 0 c-15
-1 -40 10 -57 25 -17 14 -31 21 -31 16 0 -6 14 -22 31 -36 35 -30 39 -30 313
-31 142 0 190 -3 193 -12 4 -10 -48 -13 -239 -13 l-244 0 -52 33 c-29 18 -50
35 -48 38 3 3 -6 18 -20 34 l-26 30 29 7 c63 16 513 58 738 69 132 6 242 13
244 15 8 7 116 4 129 -4z m-4148 -31 c96 -12 213 -28 260 -36 47 -8 87 -15 89
-15 10 0 -108 -114 -131 -126 -19 -10 -62 -14 -143 -14 -99 0 -115 2 -115 16
0 13 11 16 63 14 146 -6 174 -2 212 31 19 17 35 37 35 44 0 13 4 13 -290 50
-107 14 -206 28 -220 30 -23 5 -26 2 -28 -27 -1 -18 -7 -46 -12 -63 -5 -16
-11 -56 -12 -89 -3 -52 -1 -60 22 -75 14 -9 21 -11 16 -3 -10 17 9 15 23 -2
10 -12 9 -17 -6 -24 -39 -20 -83 16 -83 68 0 50 28 207 41 232 12 21 -4 22
279 -11z m2123 -18 c-46 -2 -120 -2 -165 0 -46 1 -9 3 82 3 91 0 128 -2 83 -3z
m-2353 -24 c-7 -11 -9 -27 -6 -34 3 -8 1 -17 -4 -20 -27 -16 1 -101 42 -129
12 -9 18 -16 12 -16 -19 0 -65 57 -75 93 -8 30 -6 45 10 82 11 25 23 45 26 45
3 0 1 -9 -5 -21z m2663 14 c-18 -2 -48 -2 -65 0 -18 2 -4 4 32 4 36 0 50 -2
33 -4z m1748 -54 c-17 -51 -80 -178 -66 -134 16 49 58 162 67 178 18 35 18 10
-1 -44z m-1624 45 c-3 -3 -12 -4 -19 -1 -8 3 -5 6 6 6 11 1 17 -2 13 -5z m94
-27 c51 -34 99 -103 98 -140 -1 -31 -2 -30 -10 8 -11 50 -58 109 -107 135 -21
10 -32 19 -26 20 6 0 26 -10 45 -23z m1137 -5 c2 -7 -2 -10 -12 -6 -9 3 -16
11 -16 16 0 13 23 5 28 -10z m-3265 -9 c16 -4 15 -7 -8 -25 -14 -10 -37 -40
-51 -64 -26 -44 -27 -49 -20 -147 4 -56 9 -118 12 -137 3 -26 2 -30 -5 -15 -4
11 -12 63 -16 115 -4 52 -12 100 -17 107 -7 9 -5 17 6 28 18 18 22 40 6 30
-15 -10 -12 32 4 48 8 7 16 25 18 38 2 19 -1 24 -19 23 -12 0 -20 4 -16 8 5 9
62 4 106 -9z m97 13 c0 -2 -7 -7 -16 -10 -8 -3 -12 -2 -9 4 6 10 25 14 25 6z
m2278 -27 c40 -48 44 -57 31 -80 -8 -15 -8 -28 0 -45 9 -20 8 -22 -6 -17 -12
5 -15 2 -10 -10 4 -11 2 -14 -9 -10 -7 3 -14 1 -14 -4 0 -5 -13 -23 -29 -40
-25 -28 -40 -53 -41 -68 0 -6 -15 -25 -56 -70 -17 -19 -35 -42 -38 -52 -6 -14
-9 -15 -15 -4 -6 9 -10 5 -15 -14 -4 -15 -9 -25 -12 -23 -2 3 16 71 41 151 25
80 45 160 45 178 0 18 -11 52 -25 75 l-26 43 28 7 c16 3 33 7 38 9 6 2 27 4
48 4 31 1 43 -5 65 -30z m-2763 -9 l30 -8 -36 -1 c-53 -1 -129 10 -124 19 5 8
84 2 130 -10z m3649 -89 c11 -12 17 -24 13 -27 -3 -3 -14 7 -23 23 -10 15 -21
30 -25 33 -3 3 -3 23 0 45 l5 40 6 -47 c3 -26 14 -56 24 -67z m-247 93 c-3 -3
-12 -4 -19 -1 -8 3 -5 6 6 6 11 1 17 -2 13 -5z m690 -68 c-6 -89 3 -107 20
-39 l12 48 -2 -75 -2 -75 -34 -3 c-36 -4 -51 9 -50 43 l0 20 8 -20 c7 -16 10
-10 19 30 6 28 13 71 17 98 11 71 17 56 12 -27z m-4327 54 c0 -5 -4 -10 -10
-10 -5 0 -10 5 -10 10 0 6 5 10 10 10 6 0 10 -4 10 -10z m3473 3 c-13 -2 -33
-2 -45 0 -13 2 -3 4 22 4 25 0 35 -2 23 -4z m547 -3 c0 -5 -4 -10 -10 -10 -5
0 -10 5 -10 10 0 6 5 10 10 10 6 0 10 -4 10 -10z m-4079 -17 c13 -16 12 -17
-3 -4 -17 13 -22 21 -14 21 2 0 10 -8 17 -17z m244 -3 c-28 -12 -55 -12 -55 0
0 6 17 10 38 9 30 0 33 -2 17 -9z m1612 4 c-3 -3 -12 -4 -19 -1 -8 3 -5 6 6 6
11 1 17 -2 13 -5z m2014 -4 c19 0 8 -38 -12 -43 -29 -8 -49 2 -49 23 0 20 17
31 38 24 8 -2 18 -4 23 -4z m-2316 -18 c-3 -3 -11 0 -18 7 -9 10 -8 11 6 5 10
-3 15 -9 12 -12z m170 8 c3 -6 -1 -7 -9 -4 -18 7 -21 14 -7 14 6 0 13 -4 16
-10z m153 -16 c20 -13 24 -13 38 1 58 58 183 1 200 -90 9 -48 -11 -92 -56
-121 -52 -35 -97 -39 -142 -16 -23 12 -40 16 -46 10 -5 -5 -27 -14 -48 -18
-31 -7 -47 -5 -78 10 -33 16 -42 17 -60 6 -38 -24 -81 -26 -120 -7 -20 11 -39
15 -41 10 -9 -14 -83 -30 -110 -23 -45 11 -85 57 -85 98 0 47 20 95 53 125 34
31 107 40 142 17 23 -15 28 -15 47 -1 29 20 107 19 136 -1 21 -14 25 -14 35
-1 7 8 19 17 27 20 22 9 81 -2 108 -19z m1242 -14 c0 -5 -2 -10 -4 -10 -3 0
-8 5 -11 10 -3 6 -1 10 4 10 6 0 11 -4 11 -10z m-2470 -10 c0 -5 -5 -10 -11
-10 -5 0 -7 5 -4 10 3 6 8 10 11 10 2 0 4 -4 4 -10z m4515 -144 c162 -76 285
-346 315 -691 25 -279 -8 -481 -110 -690 -71 -145 -177 -235 -274 -235 -90 0
-195 80 -264 201 -43 76 -84 187 -72 194 6 3 10 1 10 -6 0 -21 86 -192 119
-236 17 -24 37 -43 44 -43 6 0 30 10 53 22 53 28 77 20 72 -24 l-3 -33 48 2
c35 1 58 9 85 29 43 33 80 69 105 104 l18 25 -12 -24 c-18 -38 -90 -111 -129
-130 -19 -10 -52 -21 -73 -25 -46 -9 -39 -26 10 -26 80 0 174 75 238 191 27
49 31 65 36 172 3 80 9 121 18 126 7 5 19 53 28 107 17 111 13 351 -7 441 -6
29 -10 61 -8 70 10 43 31 -126 35 -278 5 -151 -5 -296 -23 -342 -3 -9 -2 -17
4 -17 45 0 59 372 22 575 -19 108 -20 109 -63 147 -53 45 -74 87 -58 116 22
41 13 79 -37 144 -62 83 -136 128 -208 128 -57 0 -63 -5 -87 -70 -9 -25 -27
-61 -39 -80 l-21 -35 -13 31 c-10 23 -10 41 -2 75 14 56 24 68 73 90 54 25
110 23 170 -5z m-2772 -11 c1 -5 -9 -12 -23 -14 l-25 -4 25 -8 c22 -6 23 -7 4
-8 -12 -1 -27 6 -34 14 -9 11 -9 15 -1 15 7 0 9 5 6 11 -5 7 2 9 19 7 15 -2
28 -7 29 -13z m103 -12 c3 -18 -1 -23 -19 -23 -36 0 -46 12 -38 46 0 3 13 4
28 2 18 -2 27 -10 29 -25z m30 -10 c-11 -11 -19 6 -11 24 8 17 8 17 12 0 3
-10 2 -21 -1 -24z m38 31 c23 -9 20 -33 -2 -27 -10 2 -19 11 -19 19 0 16 0 16
21 8z m1850 -33 c-5 -5 -52 -11 -104 -14 l-95 -5 75 9 c41 5 86 13 100 18 28
8 38 5 24 -8z m2363 -53 c26 -29 46 -68 39 -76 -3 -3 -6 0 -6 6 0 6 -12 24
-26 42 -33 39 -49 28 -58 -40 -10 -73 -19 -92 -27 -55 l-6 30 -11 -28 c-7 -15
-18 -71 -26 -125 -7 -53 -14 -81 -15 -62 -1 37 21 173 37 226 14 45 40 91 54
97 21 9 24 8 45 -15z m-3197 -29 c-88 -19 -533 -80 -562 -77 -28 3 -24 5 27
15 33 7 114 24 180 38 121 26 291 44 355 36 l35 -4 -35 -8z m-3305 -19 c110
-21 170 -38 143 -39 -22 -1 -249 46 -256 54 -8 8 7 6 113 -15z m352 -72 c-3
-8 -6 -5 -6 6 -1 11 2 17 5 13 3 -3 4 -12 1 -19z m1301 -25 c-10 -2 -26 -2
-35 0 -10 3 -2 5 17 5 19 0 27 -2 18 -5z m90 0 c-10 -2 -26 -2 -35 0 -10 3 -2
5 17 5 19 0 27 -2 18 -5z m100 0 c-10 -2 -26 -2 -35 0 -10 3 -2 5 17 5 19 0
27 -2 18 -5z m90 0 c-10 -2 -26 -2 -35 0 -10 3 -2 5 17 5 19 0 27 -2 18 -5z
m90 0 c-10 -2 -26 -2 -35 0 -10 3 -2 5 17 5 19 0 27 -2 18 -5z m-2 -39 l29 -5
-6 -132 c-4 -73 -7 -140 -8 -150 -1 -18 -24 -19 -673 -12 -370 4 -675 10 -678
12 -6 6 -1 252 6 276 5 16 45 17 653 17 357 0 661 -3 677 -6z m4568 -94 c6
-61 5 -63 -8 -35 -17 35 -19 48 -17 95 2 54 18 16 25 -60z m-1564 30 c-6 -11
-13 -20 -16 -20 -2 0 0 9 6 20 6 11 13 20 16 20 2 0 0 -9 -6 -20z m-996 -84
c19 -39 21 -119 5 -165 l-11 -33 -30 36 c-16 20 -51 48 -76 63 -53 30 -65 44
-53 56 17 17 136 85 142 81 4 -2 14 -19 23 -38z m2333 -98 c-2 -18 -4 -6 -4
27 0 33 2 48 4 33 2 -15 2 -42 0 -60z m-4227 32 c0 -25 -4 -30 -25 -30 -20 0
-25 5 -25 23 0 28 7 37 32 37 13 0 18 -8 18 -30z m272 -121 c-51 -147 -76
-211 -68 -174 8 38 110 325 113 321 3 -2 -18 -69 -45 -147z m3905 129 c-3 -8
-6 -5 -6 6 -1 11 2 17 5 13 3 -3 4 -12 1 -19z m-3339 -7 c92 3 85 -7 -10 -14
-45 -4 -84 -5 -86 -2 -3 2 1 12 8 20 9 11 15 12 20 5 4 -6 33 -10 68 -9z m182
3 c-36 -8 -100 -9 -100 -2 0 5 26 7 58 7 31 -1 50 -3 42 -5z m2884 -9 c3 -8 1
-15 -4 -15 -6 0 -10 7 -10 15 0 8 2 15 4 15 2 0 6 -7 10 -15z m-3186 -10 c-3
-3 -43 -7 -89 -10 l-84 -4 85 12 c82 12 99 13 88 2z m3462 -50 c0 -8 -4 -15
-10 -15 -5 0 -10 7 -10 15 0 8 5 15 10 15 6 0 10 -7 10 -15z m70 -79 c-7 -7
-10 -2 -10 13 0 12 -4 19 -10 16 -14 -9 -12 3 3 19 10 11 13 9 19 -12 4 -15 3
-31 -2 -36z m-83 32 c-3 -8 -6 -5 -6 6 -1 11 2 17 5 13 3 -3 4 -12 1 -19z
m-1567 -3 c0 -8 -2 -15 -4 -15 -2 0 -6 7 -10 15 -3 8 -1 15 4 15 6 0 10 -7 10
-15z m-44 -22 c-10 -10 -19 5 -10 18 6 11 8 11 12 0 2 -7 1 -15 -2 -18z
m-1099 -15 c-3 -7 -5 -2 -5 12 0 14 2 19 5 13 2 -7 2 -19 0 -25z m2710 0 c-3
-8 -6 -5 -6 6 -1 11 2 17 5 13 3 -3 4 -12 1 -19z m82 -62 c0 -21 -1 -21 -10
-1 -6 15 -8 9 -4 -20 5 -38 6 -83 3 -150 -1 -16 4 -60 10 -97 7 -36 9 -74 5
-84 -15 -39 -25 36 -30 221 -4 173 -3 188 11 171 9 -11 16 -29 15 -40z m-3778
3 c-5 -13 -10 -19 -10 -12 -1 15 10 45 15 40 3 -2 0 -15 -5 -28z m1985 4 c-10
-10 -19 5 -10 18 6 11 8 11 12 0 2 -7 1 -15 -2 -18z m118 -8 c8 -21 -7 -56
-34 -80 l-23 -20 5 37 c2 20 0 34 -4 32 -14 -9 -9 9 9 28 20 22 39 23 47 3z
m1883 -42 c-3 -10 -5 -2 -5 17 0 19 2 27 5 18 2 -10 2 -26 0 -35z m-7060 11
c-3 -3 -12 -4 -19 -1 -8 3 -5 6 6 6 11 1 17 -2 13 -5z m71 -1 c-10 -2 -26 -2
-35 0 -10 3 -2 5 17 5 19 0 27 -2 18 -5z m2982 -30 c-11 -17 -11 -17 -6 0 3
10 6 24 7 30 0 9 2 9 5 0 3 -7 0 -20 -6 -30z m-2857 20 c-13 -2 -33 -2 -45 0
-13 2 -3 4 22 4 25 0 35 -2 23 -4z m5037 -28 c0 -8 -4 -15 -10 -15 -5 0 -10 7
-10 15 0 8 5 15 10 15 6 0 10 -7 10 -15z m-1052 -2 c-10 -2 -28 -2 -40 0 -13
2 -5 4 17 4 22 1 32 -1 23 -4z m-1148 -50 c-11 -17 -11 -17 -6 0 3 10 6 24 7
30 0 9 2 9 5 0 3 -7 0 -20 -6 -30z m547 5 c-3 -8 -6 -5 -6 6 -1 11 2 17 5 13
3 -3 4 -12 1 -19z m-791 -27 c-9 -17 -26 -36 -39 -42 -18 -10 -16 -5 11 25 17
20 32 42 32 48 0 6 3 9 6 6 3 -4 -2 -20 -10 -37z m569 -1 c-5 -8 -11 -8 -17
-2 -6 6 -7 16 -3 22 5 8 11 8 17 2 6 -6 7 -16 3 -22z m165 5 c0 -29 -3 -30
-24 -9 -18 17 -13 34 10 34 8 0 14 -10 14 -25z m-270 5 c0 -5 -2 -10 -4 -10
-3 0 -8 5 -11 10 -3 6 -1 10 4 10 6 0 11 -4 11 -10z m3130 -13 c0 -2 -19 -21
-42 -42 l-43 -40 40 43 c36 39 45 47 45 39z m667 -64 c-3 -10 -5 -4 -5 12 0
17 2 24 5 18 2 -7 2 -21 0 -30z m30 -88 c-15 -300 -92 -488 -157 -383 -25 41
-64 163 -57 180 3 7 6 3 6 -9 1 -12 6 -25 11 -28 6 -3 10 -19 10 -34 0 -35 9
-44 28 -29 11 10 17 8 29 -7 8 -11 19 -19 25 -17 6 2 3 -9 -6 -23 -20 -30 -14
-45 12 -29 33 20 64 140 70 267 2 65 9 120 13 123 5 3 9 30 9 60 0 30 3 54 7
54 3 0 3 -56 0 -125z m-4372 95 c-11 -5 -36 -8 -55 -8 -32 0 -33 1 -10 8 14 4
39 8 55 8 25 1 27 -1 10 -8z m-2708 -6 c-3 -3 -12 -4 -19 -1 -8 3 -5 6 6 6 11
1 17 -2 13 -5z m2573 -4 c0 -5 -4 -10 -9 -10 -6 0 -13 5 -16 10 -3 6 1 10 9
10 9 0 16 -4 16 -10z m-2367 -7 c-13 -2 -33 -2 -45 0 -13 2 -3 4 22 4 25 0 35
-2 23 -4z m64 -9 c-3 -3 -12 -4 -19 -1 -8 3 -5 6 6 6 11 1 17 -2 13 -5z m6018
-4 c-3 -5 -12 -10 -18 -10 -7 0 -6 4 3 10 19 12 23 12 15 0z m-1115 -10 c0 -5
-4 -10 -10 -10 -5 0 -10 5 -10 10 0 6 5 10 10 10 6 0 10 -4 10 -10z m1495 -2
c22 -6 43 -11 48 -10 10 3 9 -16 -2 -22 -18 -12 -988 -152 -996 -144 -2 2 0
19 4 38 6 30 11 35 36 38 17 2 194 25 395 52 201 27 379 51 395 53 58 8 80 7
120 -5z m382 -10 c-3 -8 -6 -5 -6 6 -1 11 2 17 5 13 3 -3 4 -12 1 -19z m-3019
-5 c-10 -2 -28 -2 -40 0 -13 2 -5 4 17 4 22 1 32 -1 23 -4z m190 0 c-10 -2
-26 -2 -35 0 -10 3 -2 5 17 5 19 0 27 -2 18 -5z m1995 0 c-7 -2 -19 -2 -25 0
-7 3 -2 5 12 5 14 0 19 -2 13 -5z m-46 -9 c-3 -3 -12 -4 -19 -1 -8 3 -5 6 6 6
11 1 17 -2 13 -5z m-54 -11 c-7 -2 -21 -2 -30 0 -10 3 -4 5 12 5 17 0 24 -2
18 -5z m-60 -10 c-7 -2 -21 -2 -30 0 -10 3 -4 5 12 5 17 0 24 -2 18 -5z m-70
-10 c-7 -2 -21 -2 -30 0 -10 3 -4 5 12 5 17 0 24 -2 18 -5z m-65 -10 c-10 -2
-26 -2 -35 0 -10 3 -2 5 17 5 19 0 27 -2 18 -5z m-80 -10 c-10 -2 -26 -2 -35
0 -10 3 -2 5 17 5 19 0 27 -2 18 -5z m-3529 -13 c431 -8 554 -14 586 -25 22
-8 49 -14 60 -14 34 1 60 -6 72 -17 7 -7 47 -27 90 -45 l78 -34 283 0 c155 0
282 -2 282 -5 0 -3 23 -6 50 -7 28 -2 50 2 50 7 0 6 7 10 15 10 8 0 15 -4 15
-10 0 -5 11 -10 25 -10 14 0 25 5 25 10 0 6 12 10 26 10 14 0 23 -4 19 -10 -3
-5 3 -10 14 -10 11 0 23 5 26 10 9 14 155 13 155 -1 0 -7 54 -10 175 -7 96 2
175 0 175 -3 0 -4 -109 -9 -242 -13 -793 -19 -1021 -27 -1038 -36 -44 -23 -99
-11 -266 61 l-164 71 -213 10 c-116 5 -540 11 -942 12 l-730 1 -165 -69 -165
-68 -50 12 c-27 7 -66 14 -85 15 -52 3 -219 16 -265 20 -22 2 -104 9 -182 16
-138 12 -167 20 -121 35 25 8 76 7 416 -6 160 -6 269 -6 295 0 23 5 96 30 162
54 l120 45 434 1 c238 0 679 -5 980 -10z m3464 3 c-7 -2 -21 -2 -30 0 -10 3
-4 5 12 5 17 0 24 -2 18 -5z m1074 -75 c-3 -8 -6 -5 -6 6 -1 11 2 17 5 13 3
-3 4 -12 1 -19z m-2001 -48 c50 -19 24 -30 -73 -30 -95 0 -96 0 -79 19 28 31
88 35 152 11z m2011 -22 c-3 -7 -5 -2 -5 12 0 14 2 19 5 13 2 -7 2 -19 0 -25z
m-602 -44 c3 -26 15 -78 26 -118 10 -39 19 -74 19 -78 0 -5 -151 -8 -334 -8
l-335 0 16 53 c8 28 20 68 27 87 l11 35 240 32 c132 18 249 34 260 36 57 12
62 9 70 -39z m-3528 -30 c-3 -3 -12 -4 -19 -1 -8 3 -5 6 6 6 11 1 17 -2 13 -5z
m146 -1 c-24 -2 -62 -2 -85 0 -24 2 -5 4 42 4 47 0 66 -2 43 -4z m-818 -68
c39 -2 152 -3 251 -4 l181 -1 18 -47 c10 -27 22 -54 28 -61 5 -7 8 -14 6 -16
-2 -2 -321 -33 -709 -70 -388 -37 -727 -69 -754 -73 l-49 -6 41 54 c39 52 103
175 115 219 l5 21 399 -6 c219 -4 430 -8 468 -10z m3465 -35 c-6 -11 -12 -20
-14 -20 -2 0 -2 9 1 20 3 11 9 20 15 20 5 0 4 -9 -2 -20z m-1790 -30 c102 -5
271 -13 375 -16 357 -12 200 -17 -325 -10 -289 4 -526 9 -528 10 -1 2 0 10 3
17 6 17 155 16 475 -1z"/>
<path d="M2286 2279 c-32 -25 -52 -62 -61 -112 -6 -32 -3 -40 23 -67 25 -24
39 -30 74 -30 53 0 90 22 71 41 -20 20 -15 80 8 124 20 37 20 39 3 52 -27 20
-88 16 -118 -8z"/>
<path d="M2468 2288 c-14 -11 -15 -21 -5 -71 10 -53 9 -60 -13 -89 -22 -30
-22 -32 -5 -45 23 -16 75 -17 109 -2 24 11 24 13 11 40 -20 39 -19 59 9 111
23 43 23 45 5 56 -25 16 -91 15 -111 0z"/>
<path d="M2634 2285 c-12 -9 -15 -18 -9 -22 6 -5 10 -15 11 -23 1 -8 4 -29 8
-46 5 -23 1 -38 -18 -66 l-24 -36 23 -12 c14 -7 40 -10 66 -6 50 7 69 20 51
38 -18 18 -14 79 8 123 19 38 19 41 3 52 -23 18 -95 16 -119 -2z"/>
<path d="M2817 2288 c-15 -12 -16 -19 -5 -69 11 -51 10 -59 -10 -91 -26 -42
-16 -58 40 -58 106 0 167 85 126 175 -22 48 -110 73 -151 43z"/>
<path d="M2420 2241 c-16 -30 -19 -123 -4 -128 25 -9 43 85 25 132 -8 19 -8
19 -21 -4z"/>
<path d="M2592 2232 c-26 -67 -26 -122 -1 -122 18 0 41 71 34 106 -8 44 -20
50 -33 16z"/>
<path d="M2772 2243 c-18 -32 -26 -119 -12 -128 19 -12 39 27 40 75 0 57 -13
81 -28 53z"/>
<path d="M3338 2113 c7 -3 16 -2 19 1 4 3 -2 6 -13 5 -11 0 -14 -3 -6 -6z"/>
<path d="M3338 2093 c6 -2 18 -2 25 0 6 3 1 5 -13 5 -14 0 -19 -2 -12 -5z"/>
<path d="M1896 1821 c-2 -3 -7 -45 -11 -93 -4 -49 -11 -90 -16 -94 -5 -3 -9
-12 -9 -20 0 -10 14 -14 55 -14 42 0 55 3 55 15 0 9 -9 15 -25 15 -24 0 -25 2
-25 70 0 70 5 81 28 58 10 -10 15 -10 22 2 7 11 2 22 -16 41 -23 24 -50 33
-58 20z"/>
<path d="M2012 1803 c3 -14 11 -17 37 -15 l34 4 -7 -47 c-3 -27 -6 -63 -6 -81
0 -27 -4 -34 -20 -34 -17 0 -19 8 -22 67 -4 91 -23 93 -32 3 -5 -50 -4 -76 5
-86 14 -18 73 -18 87 -1 6 7 14 50 18 95 8 97 0 112 -58 112 -32 0 -39 -3 -36
-17z"/>
<path d="M2170 1748 c0 -85 -7 -118 -25 -118 -15 0 -28 -27 -17 -34 5 -3 33
-3 62 -2 42 2 56 7 58 19 3 12 -4 17 -22 17 -25 0 -26 1 -26 70 0 64 9 86 25
60 10 -16 25 -11 25 8 0 25 -31 52 -58 52 -21 0 -22 -5 -22 -72z"/>
<path d="M2290 1805 c0 -10 11 -15 35 -15 30 0 35 -3 35 -24 0 -19 -4 -22 -25
-18 -14 2 -32 -1 -40 -8 -19 -16 -20 -99 -2 -124 26 -35 97 -16 97 25 0 23
-25 25 -34 4 -14 -38 -52 9 -42 51 6 22 10 24 41 18 32 -6 35 -4 35 19 0 13 3
39 6 56 l7 31 -57 0 c-43 0 -56 -3 -56 -15z"/>
<path d="M2474 1805 c-4 -8 -3 -22 0 -31 6 -16 8 -16 24 0 10 9 24 16 30 16
26 0 20 -22 -17 -63 -49 -53 -60 -90 -36 -117 34 -38 105 -17 105 31 0 10 -7
19 -15 19 -8 0 -15 -7 -15 -15 0 -9 -9 -15 -25 -15 -38 0 -32 29 15 75 41 40
52 79 28 103 -18 18 -87 15 -94 -3z"/>
<path d="M2627 1813 c-12 -11 -8 -82 5 -103 10 -16 9 -27 -10 -64 -15 -32 -18
-47 -10 -52 14 -9 33 17 54 73 16 41 16 44 0 56 -24 18 -18 62 9 62 19 0 20
-5 16 -97 -3 -81 -1 -98 11 -98 15 0 28 91 28 192 l0 38 -48 0 c-27 0 -52 -3
-55 -7z"/>
<path d="M2918 1730 c-1 -49 -2 -100 -2 -112 -2 -43 22 -27 47 32 15 33 31 60
36 60 5 0 7 -26 4 -60 -5 -49 -3 -60 9 -60 11 0 17 16 22 61 9 91 7 169 -4
169 -5 0 -24 -26 -42 -57 l-33 -58 -3 58 c-2 42 -7 57 -17 57 -12 0 -15 -19
-17 -90z"/>
<path d="M3095 1810 c-4 -6 -1 -18 6 -26 17 -21 5 -145 -16 -156 -8 -5 -15
-16 -15 -23 0 -11 13 -15 50 -15 38 0 50 4 50 15 0 9 -7 18 -15 21 -11 5 -15
24 -15 79 0 41 5 77 10 80 6 3 10 13 10 21 0 16 -55 20 -65 4z"/>
<path d="M3255 1647 c-4 -10 -5 -21 -1 -24 10 -10 18 4 13 24 -4 17 -4 17 -12
0z"/>
<path d="M5852 2770 c-35 -5 -88 -16 -119 -25 -125 -37 -375 -186 -351 -210 3
-3 85 22 184 56 295 101 420 129 594 129 83 1 80 10 -13 34 -73 19 -217 27
-295 16z"/>
<path d="M7004 2676 c-3 -14 -3 -29 0 -35 3 -5 -6 -19 -21 -30 -17 -12 -24
-24 -18 -28 6 -5 10 -17 10 -28 0 -14 8 -21 27 -23 19 -2 29 -11 37 -33 14
-40 47 -40 56 2 4 18 16 35 31 41 13 6 24 17 24 25 0 10 -19 13 -75 13 -41 0
-75 4 -75 9 0 4 27 16 60 25 33 9 60 20 60 23 0 3 -9 3 -20 0 -14 -4 -24 4
-39 29 -24 40 -48 44 -57 10z"/>
</g>
</svg>
